<svg xmlns="http://www.w3.org/2000/svg" viewBox="0 0 24 24"><g fill="none" stroke="#303C42" stroke-linecap="round" stroke-linejoin="round" stroke-miterlimit="10"><circle cx="12" cy="12" r="11.5"/><path d="M13.67 14.383S13 15.53 13 16.5s.174 2.357.812 3h-3.624c.638-.643.812-2.03.812-3s-.669-2.333-.669-2.333"/><path d="M8.93 9.501c-1.342.038-2.457 1.209-2.43 2.551A2.5 2.5 0 0 0 9 14.5c.344 0 .67-.072.967-.2.48-.206 1-.3 1.523-.3h.03c.72 0 1.418.157 2.1.368a3.004 3.004 0 0 0 3.813-3.506A2.983 2.983 0 0 0 14.501 8.5"/><path d="M15.936 8.863A3.99 3.99 0 0 0 12 5.5a4 4 0 0 0-4 4c0 .073.018.14.021.212"/></g></svg>